<svg viewBox="0 0 200 200" xmlns="http://www.w3.org/2000/svg">
  <path fill="#FF0066" d="M40.1,-73.9C47.1,-65.4,44.5,-44.8,49,-30.5C53.5,-16.1,65,-8.1,65.1,0C65.1,8.1,53.7,16.3,47.4,27.4C41.1,38.6,39.8,52.7,32.8,56.7C25.8,60.7,12.9,54.5,2.7,49.8C-7.4,45.1,-14.9,41.9,-25.4,39.9C-36,38,-49.6,37.2,-55.6,30.8C-61.5,24.3,-59.8,12.2,-55.3,2.6C-50.8,-7,-43.5,-13.9,-39.6,-23.9C-35.6,-33.8,-35,-46.6,-28.9,-55.7C-22.9,-64.8,-11.4,-70.2,2.5,-74.6C16.5,-79,33.1,-82.5,40.1,-73.9Z" transform="translate(100 100)" />
</svg>