<svg viewBox="0 0 200 200" xmlns="http://www.w3.org/2000/svg">
  <path fill="#FF0066" d="M34.4,-64.7C40.7,-55.9,39.3,-38.9,43.9,-26.8C48.5,-14.6,59.1,-7.3,66.1,4C73,15.3,76.3,30.6,71.6,42.7C67,54.7,54.3,63.5,41.1,71.4C27.8,79.3,13.9,86.4,2.7,81.8C-8.6,77.2,-17.2,60.9,-30.2,52.8C-43.3,44.8,-60.8,45,-69,37.6C-77.2,30.2,-76,15.1,-76.3,-0.2C-76.6,-15.4,-78.4,-30.9,-70.6,-38.9C-62.8,-47,-45.4,-47.7,-32,-52.5C-18.7,-57.2,-9.3,-66,2.4,-70.1C14,-74.1,28.1,-73.5,34.4,-64.7Z" transform="translate(100 100)" />
</svg>